# xmcd
#
# Track frame offsets: 
#        150
#        44368
#        73298
#        102950
#
# Disc length: 1631 seconds
#
# Revision: 0
# Processed by: cddbd v1.5.1PL0 Copyright (c) Steve Scherf et al.
# Submitted via: ExactAudioCopy v0.95a5
#
DISCID=35065d04
DTITLE=Matt Leddy and The Meatcutters - Live from Houston Texas
DYEAR=1998
DGENRE=Blues
TTITLE0=Ain't What You Say
TTITLE1=Killer
TTITLE2=Good Woman
TTITLE3=Blues Face
EXTD=
EXTT0=
EXTT1=
EXTT2=
EXTT3=
PLAYORDER=
